<svg xmlns="http://www.w3.org/2000/svg" viewBox="0 0 278.53 229.03"><defs><style>.cls-1{fill:none;stroke-linecap:square;}.cls-1,.cls-2{stroke:#231f20;stroke-miterlimit:10;stroke-width:6px;}.cls-2{fill:#fff;stroke-linecap:round;}</style></defs><g id="Layer_2" data-name="Layer 2"><g id="Layer_1-2" data-name="Layer 1"><path class="cls-1" d="M228.77,226C104.08,226,3,176.11,3,114.52S104.08,3,228.77,3C291.11,3,291.11,226,228.77,226Z"/><path class="cls-2" d="M156.85,99.69s9.89,9.89,30.77,0,0-39.56,0-39.56L176.87,39.25s-5.74-13.19-20,9.89c0,0-16.41-1.1-19.19,0l-2.79,1.1c-2.58-3.74-17.46-25-24.31-22.16-5.9,2.46-5.16,22.55.13,37.54a62.85,62.85,0,0,0,3.3,7.7c-47.34,24-60.15,80.18-37.36,113.18,23.33,33.8,76.46,32.88,102.19,15.39,31.83-21.64,4.73-86.21,26.38-95.61,10.23-4.44,21.65,18.8,36.26,15.39,12.95-3,12.54-28.3,19.78-28.57,3.23-.12,8,4.49,14.29,26.37"/><path class="cls-2" d="M162.31,69.51c.55,4.18,7.48,6.58,12.09,6,4-.46,7.55-3.26,6.59-6.59"/><path class="cls-2" d="M131.19,69.07c.64,4.84,8.66,7.61,14,7,4.59-.53,8.74-3.76,7.63-7.63"/><path class="cls-2" d="M88.71,138.06c7.59,8.08,27.37,28.66,31.55,26.27s-8.55-25.39-14-35"/><path class="cls-2" d="M136.48,128.25c12.91,11.18,27.78,23,31.9,21.73,4.4-1.33-5-17.07-13.29-29.49"/></g></g></svg>